<?xml version="1.0" encoding="utf-8"?>
<!-- Generator: Adobe Illustrator 26.0.2, SVG Export Plug-In . SVG Version: 6.00 Build 0)  -->
<svg version="1.1" id="Layer_1" xmlns="http://www.w3.org/2000/svg" xmlns:xlink="http://www.w3.org/1999/xlink" x="0px" y="0px"
	 viewBox="0 0 512 512" style="enable-background:new 0 0 512 512;" xml:space="preserve">
<style type="text/css">
	.st0{fill:#D30971;stroke:#020A47;stroke-width:35;stroke-miterlimit:10;}
	.st1{fill:none;stroke:#020A47;stroke-width:20;stroke-miterlimit:10;}
</style>
<circle class="st0" cx="255.2" cy="261.6" r="53.8"/>
<circle class="st1" cx="434.3" cy="230.1" r="42"/>
<ellipse transform="matrix(0.1602 -0.9871 0.9871 0.1602 135.848 318.6702)" class="st1" cx="255.2" cy="79.5" rx="42" ry="42"/>
<circle class="st1" cx="77.7" cy="230.3" r="42"/>
<circle class="st1" cx="166.1" cy="155.5" r="26.8"/>
<circle class="st1" cx="365.1" cy="130.6" r="26.8"/>
<circle class="st1" cx="382" cy="334.8" r="26.8"/>
<circle class="st1" cx="310.9" cy="414.7" r="26.8"/>
<circle class="st1" cx="112.5" cy="344" r="26.8"/>
<circle class="st1" cx="193" cy="432.5" r="42"/>
<line class="st1" x1="112.2" y1="236.4" x2="202.2" y2="252.3"/>
<line class="st1" x1="183.4" y1="176.1" x2="220.6" y2="220.4"/>
<line class="st1" x1="135.7" y1="330.6" x2="208.6" y2="288.5"/>
<line class="st1" x1="205" y1="399.6" x2="236.8" y2="312.2"/>
<line class="st1" x1="301.7" y1="389.5" x2="273.6" y2="312.2"/>
<line class="st1" x1="358.7" y1="321.4" x2="301.8" y2="288.5"/>
<line class="st1" x1="399.8" y1="236.1" x2="308.2" y2="252.3"/>
<line class="st1" x1="347.9" y1="151.2" x2="289.8" y2="220.4"/>
<line class="st1" x1="255.2" y1="114.4" x2="255.2" y2="207.9"/>
</svg>
