<svg width="231" height="55" viewBox="0 0 231 55" fill="none" xmlns="http://www.w3.org/2000/svg">
    <path
        d="M65.3531 20.4515C64.2703 20.4515 63.3513 20.099 62.5959 19.3939C61.8657 18.6889 61.5005 17.8328 61.5005 16.8256C61.5005 15.768 61.8657 14.8993 62.5959 14.2195C63.3513 13.5145 64.2703 13.1619 65.3531 13.1619C66.4358 13.1619 67.3423 13.5145 68.0725 14.2195C68.8027 14.8993 69.1678 15.768 69.1678 16.8256C69.1678 17.8328 68.8027 18.6889 68.0725 19.3939C67.3423 20.099 66.4358 20.4515 65.3531 20.4515ZM61.916 43V23.5108H68.7523V43H61.916ZM73.3502 43V23.5108H80.0732L80.1487 25.9281C80.6523 24.9713 81.3951 24.2285 82.3772 23.6997C83.3592 23.1709 84.4923 22.9065 85.7764 22.9065C87.9671 22.9065 89.6289 23.6116 90.762 25.0216C91.9203 26.4065 92.4994 28.4461 92.4994 31.1403V43H85.6631V32.4245C85.6631 30.1331 84.7944 28.9874 83.057 28.9874C82.1254 28.9874 81.4077 29.3148 80.9041 29.9695C80.4257 30.5989 80.1865 31.5054 80.1865 32.6889V43H73.3502ZM98.9581 43V28.9874H95.8232V23.5108H98.9581V21.6223C98.9581 18.6259 99.6883 16.3094 101.149 14.6727C102.634 13.036 104.724 12.2177 107.418 12.2177C108.199 12.2177 108.929 12.2806 109.609 12.4065C110.314 12.5073 110.906 12.6583 111.384 12.8598L111.044 18.5252C110.767 18.3993 110.427 18.3112 110.025 18.2608C109.647 18.1853 109.294 18.1475 108.967 18.1475C107.884 18.1475 107.079 18.4623 106.55 19.0918C106.046 19.7213 105.794 20.7159 105.794 22.0756V23.5108H110.402V28.9874H105.794V43H98.9581ZM113.424 43V12.4065H120.26V43H113.424ZM131.299 43.6043C129.158 43.6043 127.522 42.9245 126.389 41.5648C125.256 40.1799 124.689 38.1655 124.689 35.5216V23.5108H131.563V34.1241C131.563 35.2824 131.764 36.1385 132.167 36.6925C132.595 37.2464 133.263 37.5234 134.169 37.5234C135.076 37.5234 135.768 37.2086 136.246 36.5792C136.75 35.9245 137.002 35.0054 137.002 33.822V23.5108H143.838V43H137.115L137.04 40.5827C136.536 41.5396 135.781 42.2824 134.773 42.8112C133.791 43.3399 132.633 43.6043 131.299 43.6043ZM146.936 43L154.037 32.9533L147.314 23.5108H154.943L158.116 28.7986L161.213 23.5108H168.465L161.78 33.0288L168.918 43H161.251L157.701 37.1079L154.188 43H146.936ZM180.891 43.6043C179.154 43.6043 177.593 43.1763 176.208 42.3201C174.848 41.464 173.778 40.2806 172.997 38.7698C172.217 37.2338 171.826 35.4964 171.826 33.5576C171.826 31.6943 172.242 30.0072 173.073 28.4964C173.929 26.9605 175.075 25.7518 176.51 24.8705C177.945 23.9641 179.531 23.5108 181.269 23.5108C182.704 23.5108 184.013 23.8633 185.197 24.5684C186.406 25.2734 187.375 26.268 188.105 27.5522V12.4065H191.316V43H188.181L188.105 39.563C187.35 40.8471 186.355 41.8417 185.121 42.5468C183.888 43.2518 182.477 43.6043 180.891 43.6043ZM181.722 40.7338C183.031 40.7338 184.177 40.4317 185.159 39.8273C186.141 39.223 186.909 38.3795 187.463 37.2968C188.042 36.214 188.332 34.9676 188.332 33.5576C188.332 32.1475 188.042 30.9011 187.463 29.8184C186.909 28.7356 186.141 27.8921 185.159 27.2878C184.177 26.6835 183.031 26.3813 181.722 26.3813C180.438 26.3813 179.292 26.6835 178.285 27.2878C177.303 27.8921 176.522 28.7356 175.943 29.8184C175.389 30.9011 175.112 32.1475 175.112 33.5576C175.112 34.9676 175.389 36.214 175.943 37.2968C176.522 38.3795 177.303 39.223 178.285 39.8273C179.292 40.4317 180.438 40.7338 181.722 40.7338ZM208.166 43.6043C206.68 43.6043 205.333 43.2518 204.125 42.5468C202.941 41.8417 202.009 40.8471 201.33 39.563L201.254 43H198.119V12.4065H201.33V27.5522C202.085 26.268 203.08 25.2734 204.313 24.5684C205.547 23.8633 206.957 23.5108 208.544 23.5108C210.306 23.5108 211.867 23.9389 213.227 24.795C214.587 25.6511 215.657 26.8346 216.437 28.3454C217.218 29.8561 217.608 31.5935 217.608 33.5576C217.608 35.4209 217.18 37.1205 216.324 38.6565C215.493 40.1673 214.36 41.3759 212.925 42.2824C211.515 43.1637 209.928 43.6043 208.166 43.6043ZM207.713 40.7338C209.022 40.7338 210.168 40.4317 211.15 39.8273C212.132 39.223 212.9 38.3795 213.454 37.2968C214.033 36.214 214.322 34.9676 214.322 33.5576C214.322 32.1475 214.033 30.9011 213.454 29.8184C212.9 28.7356 212.132 27.8921 211.15 27.2878C210.168 26.6835 209.022 26.3813 207.713 26.3813C206.429 26.3813 205.283 26.6835 204.276 27.2878C203.294 27.8921 202.513 28.7356 201.934 29.8184C201.38 30.9011 201.103 32.1475 201.103 33.5576C201.103 34.9676 201.38 36.214 201.934 37.2968C202.513 38.3795 203.294 39.223 204.276 39.8273C205.283 40.4317 206.429 40.7338 207.713 40.7338Z"
        fill="#020A47"/>
    <path fill-rule="evenodd" clip-rule="evenodd"
          d="M32.3034 38.6373L42.5565 36.2865C42.7145 36.2545 42.8641 36.19 42.9958 36.097C43.1274 36.004 43.2383 35.8847 43.3213 35.7465C43.4043 35.6083 43.4576 35.4544 43.4778 35.2945C43.498 35.1346 43.4847 34.9723 43.4387 34.8178L39.0783 15.906C38.9996 15.5939 38.8003 15.3258 38.5241 15.1604C38.2479 14.9951 37.9174 14.946 37.6051 15.0239L27.3562 17.3747C27.046 17.4543 26.7799 17.6535 26.6162 17.9287C26.4524 18.204 26.4043 18.5328 26.4825 18.8434L30.8302 37.7552C30.9089 38.0673 31.1082 38.3354 31.3844 38.5008C31.6606 38.6661 31.9911 38.7152 32.3034 38.6373Z"
          fill="#020A47"/>
    <path fill-rule="evenodd" clip-rule="evenodd"
          d="M28.7703 50.3236L41.2015 38.8145C41.67 38.3418 41.5518 38.0506 40.906 38.2827L32.3624 40.2241C32.0091 40.3114 31.6835 40.4863 31.4157 40.7327C31.1479 40.9791 30.9465 41.289 30.8302 41.6338L28.2384 49.9733C28.0611 50.6191 28.2975 50.7963 28.7703 50.3236Z"
          fill="#020A47"/>
    <path fill-rule="evenodd" clip-rule="evenodd"
          d="M6.09025 46.5674L24.7054 52.3199C25.0234 52.3791 25.3522 52.3233 25.6329 52.1625C25.9136 52.0017 26.1279 51.7463 26.2377 51.442L29.3571 41.4565C29.4022 41.3007 29.4162 41.1376 29.3982 40.9765C29.3802 40.8153 29.3305 40.6593 29.2521 40.5174C29.1737 40.3755 29.068 40.2504 28.9411 40.1494C28.8143 40.0484 28.6687 39.9734 28.5128 39.9287L9.8977 34.2311C9.58257 34.1409 9.24459 34.1791 8.95751 34.3373C8.67043 34.4954 8.45759 34.7607 8.36543 35.0752L5.26713 45.0396C5.17511 45.3514 5.20997 45.6868 5.36413 45.9729C5.5183 46.2591 5.77927 46.4728 6.09025 46.5674Z"
          fill="#020A47"/>
    <path fill-rule="evenodd" clip-rule="evenodd"
          d="M0.0792906 26.1278L3.85297 42.6509C3.97116 43.2966 4.27508 43.2966 4.43971 42.6509L7.03148 34.3113C7.11979 33.9559 7.12341 33.5848 7.04203 33.2278C6.96064 32.8708 6.79654 32.5379 6.56293 32.2559L0.611152 25.8324C0.197482 25.3471 -0.11066 25.4821 0.0792906 26.1278Z"
          fill="#020A47"/>
    <path fill-rule="evenodd" clip-rule="evenodd"
          d="M14.6338 8.46529L0.374854 21.6626C0.146094 21.8803 0.0117872 22.179 0.000739528 22.4946C-0.0103081 22.8102 0.102784 23.1176 0.315758 23.3508L7.44523 31.0615C7.66493 31.2946 7.96774 31.4315 8.28786 31.4426C8.60797 31.4536 8.91951 31.3379 9.15479 31.1206L23.4095 17.9022C23.6403 17.6856 23.776 17.3865 23.787 17.0703C23.7981 16.754 23.6836 16.4462 23.4686 16.214L16.3518 8.50749C16.2423 8.39099 16.1108 8.2974 15.9649 8.23213C15.8189 8.16687 15.6614 8.13124 15.5016 8.12732C15.3418 8.12339 15.1828 8.15125 15.0338 8.20926C14.8848 8.26728 14.7489 8.35431 14.6338 8.46529Z"
          fill="#020A47"/>
    <path fill-rule="evenodd" clip-rule="evenodd"
          d="M28.4158 38.3419C29.0659 38.5191 29.4753 38.1688 29.3022 37.4978L25.1782 19.6453C25.0009 18.9996 24.4691 18.8223 24.0005 19.2908L10.5689 31.7664C10.0962 32.2349 10.2143 32.7624 10.8602 32.9397L28.4158 38.3419Z"
          fill="#020A47"/>
    <path fill-rule="evenodd" clip-rule="evenodd"
          d="M35.427 13.4413L19.1672 8.46535C18.5214 8.2881 18.4032 8.52444 18.9309 9.052L24.8826 15.4544C25.1496 15.7039 25.4725 15.8859 25.8243 15.985C26.1761 16.0842 26.5465 16.0976 26.9046 16.0242L35.4481 14.087C36.077 13.9097 36.077 13.6143 35.427 13.4413Z"
          fill="#020A47"/>
    <path
        d="M221.623 17.93V13.913H220.128V13.12H224.028V13.913H222.546V17.93H221.623ZM224.86 17.93L225.107 13.12H226.004L227.473 16.175L228.968 13.12H229.865L230.112 17.93H229.293L229.137 14.368L227.811 17.098H227.161L225.822 14.342L225.679 17.93H224.86Z"
        fill="#020A47"/>
</svg>
